HIERARCHY
ROOT Pelvis
{
	OFFSET 0.000000 0.000000 0.000000
	CHANNELS 6 Xposition Yposition Zposition Xrotation Yrotation Zrotation
	JOINT LeftUpLeg_virtual
	{
		OFFSET 0.000000 0.000000 0.000000
		CHANNELS 3 Xrotation Yrotation Zrotation
		JOINT LeftUpLeg
		{
			OFFSET 18.735201 -5.666702 -4.541200
			CHANNELS 3 Xrotation Yrotation Zrotation
			JOINT LeftLeg
			{
				OFFSET -0.021200 -31.938179 0.493100
				CHANNELS 3 Xrotation Yrotation Zrotation
				JOINT LeftFoot
				{
					OFFSET 0.021200 -31.938179 -4.336299
					CHANNELS 3 Xrotation Yrotation Zrotation
					JOINT LeftToeBase
					{
						OFFSET 0.943001 -26.722000 15.023500
						CHANNELS 3 Xrotation Yrotation Zrotation
						End Site
						{
							OFFSET 0 0 0
						}
					}
				}
			}
		}
	}
	JOINT RightUpLeg_virtual
	{
		OFFSET 0.000000 0.000000 0.000000
		CHANNELS 3 Xrotation Yrotation Zrotation
		JOINT RightUpLeg
		{
			OFFSET -18.735201 -5.666702 -4.541200
			CHANNELS 3 Xrotation Yrotation Zrotation
			JOINT RightLeg
			{
				OFFSET 0.018946 -31.938133 0.493100
				CHANNELS 3 Xrotation Yrotation Zrotation
				JOINT RightFoot
				{
					OFFSET -0.018946 -31.938126 -4.336299
					CHANNELS 3 Xrotation Yrotation Zrotation
					JOINT RightToeBase
					{
						OFFSET -0.943001 -26.722004 15.023500
						CHANNELS 3 Xrotation Yrotation Zrotation
						End Site
						{
							OFFSET 0 0 0
						}
					}
				}
			}
		}
	}
	JOINT Hips_virtual
	{
		OFFSET 0.000000 0.000000 0.000000
		CHANNELS 3 Xrotation Yrotation Zrotation
		JOINT Hips
		{
			OFFSET -0.000000 -0.000000 -0.000000
			CHANNELS 3 Xrotation Yrotation Zrotation
			JOINT Spine
			{
				OFFSET 0.000000 10.199997 -0.299500
				CHANNELS 3 Xrotation Yrotation Zrotation
				JOINT Spine1
				{
					OFFSET 0.000000 11.900002 -1.516600
					CHANNELS 3 Xrotation Yrotation Zrotation
					JOINT Spine2
					{
						OFFSET 0.000000 13.600006 -2.842500
						CHANNELS 3 Xrotation Yrotation Zrotation
						JOINT Neck_virtual
						{
							OFFSET 0.000000 0.000000 0.000000
							CHANNELS 3 Xrotation Yrotation Zrotation
							JOINT Neck
							{
								OFFSET 0.000000 9.624100 -2.890100
								CHANNELS 3 Xrotation Yrotation Zrotation
								JOINT Head
								{
									OFFSET 0.000000 14.068802 -1.351900
									CHANNELS 3 Xrotation Yrotation Zrotation
									End Site
									{
										OFFSET 0 0 0
									}
								}
							}
						}
						JOINT LeftShoulder_virtual
						{
							OFFSET 0.000000 0.000000 0.000000
							CHANNELS 3 Xrotation Yrotation Zrotation
							JOINT LeftShoulder
							{
								OFFSET 15.263000 10.923401 -0.547700
								CHANNELS 3 Xrotation Yrotation Zrotation
								JOINT LeftArm
								{
									OFFSET 25.438599 -2.830597 -13.032500
									CHANNELS 3 Xrotation Yrotation Zrotation
									JOINT LeftForeArm
									{
										OFFSET 29.960503 0.000000 0.000000
										CHANNELS 3 Xrotation Yrotation Zrotation
										JOINT LeftHand
										{
											OFFSET 27.849251 0.000000 0.000000
											CHANNELS 3 Xrotation Yrotation Zrotation
											End Site
											{
												OFFSET 0 0 0
											}
										}
									}
								}
							}
						}
						JOINT RightShoulder_virtual
						{
							OFFSET 0.000000 0.000000 0.000000
							CHANNELS 3 Xrotation Yrotation Zrotation
							JOINT RightShoulder
							{
								OFFSET -15.263000 10.923401 -0.547700
								CHANNELS 3 Xrotation Yrotation Zrotation
								JOINT RightArm
								{
									OFFSET -25.438599 -2.830597 -13.032500
									CHANNELS 3 Xrotation Yrotation Zrotation
									JOINT RightForeArm
									{
										OFFSET -29.960503 0.000000 0.000000
										CHANNELS 3 Xrotation Yrotation Zrotation
										JOINT RightHand
										{
											OFFSET -27.849251 0.000000 0.000000
											CHANNELS 3 Xrotation Yrotation Zrotation
											End Site
											{
												OFFSET 0 0 0
											}
										}
									}
								}
							}
						}
					}
				}
			}
		}
	}
}
MOTION
Frames: 10
Frame Time: 0.03333333
1.895169 82.295776 3.368666 0.000000 0.000000 0.000000 7.693032 -10.167390 1.706806 -56.525519 -0.498635 22.852555 48.654880 3.241759 5.078487 5.393427 0.585506 -20.352587 0.000000 0.000000 0.000000 7.693032 -10.167390 1.706806 -27.261522 0.052186 -35.325424 40.734381 0.453115 -1.404064 -12.593880 -6.250769 33.415840 0.000000 0.000000 0.000000 7.693032 -10.167390 1.706806 0.000000 0.000000 0.000000 7.620508 1.300623 -2.533235 6.431368 1.228088 -0.932161 0.000000 0.000000 0.000000 6.450695 1.172317 -0.845380 -1.288250 -0.140355 -0.414513 0.000000 0.000000 0.000000 6.450695 1.172317 -0.845380 5.349774 -35.475907 4.326026 -77.161200 -31.121333 -22.573246 0.000010 -27.636907 -0.000003 0.000000 0.000000 0.000000 6.450695 1.172317 -0.845380 3.654529 31.100440 -18.637124 -34.428989 31.033091 9.535805 0.000000 29.388262 0.000000 0.000000 0.000000 0.000000 
2.018559 82.166306 3.418503 0.000000 0.000000 0.000000 7.767969 -9.741235 1.496115 -57.122679 -0.856083 22.810791 49.250903 2.944110 4.830984 5.180597 0.625020 -20.052561 0.000000 0.000000 0.000000 7.767969 -9.741235 1.496115 -27.072119 -0.356992 -35.325315 40.707627 0.333517 -1.437777 -12.824700 -6.339986 33.514710 0.000000 0.000000 0.000000 7.767969 -9.741235 1.496115 0.000001 0.000000 0.000000 7.625019 1.145720 -2.606598 6.424122 1.146838 -0.979023 0.000000 0.000000 0.000000 6.443373 1.089223 -0.899067 -1.500197 -0.180612 -0.298709 0.000000 0.000000 0.000000 6.443373 1.089223 -0.899067 5.326300 -35.461038 4.512439 -76.482088 -31.696920 -21.754421 -0.000015 -27.909736 -0.000001 0.000000 0.000000 0.000000 6.443373 1.089223 -0.899067 3.490726 30.381317 -18.452924 -35.039915 31.378063 10.047768 0.000000 29.551561 0.000000 0.000000 0.000000 0.000000 
2.154844 82.029678 3.486931 0.000000 0.000000 0.000000 7.716958 -9.381656 1.394281 -57.545614 -1.074788 22.645518 49.851358 2.720111 4.700055 4.953833 0.665488 -19.824365 0.000000 0.000000 0.000000 7.716958 -9.381656 1.394281 -26.837779 -0.628982 -35.495817 40.831127 0.297991 -1.426216 -13.125784 -6.447889 33.589634 0.000000 0.000000 0.000000 7.716958 -9.381656 1.394281 -0.000001 0.000000 0.000000 7.642963 1.027701 -2.689043 6.433790 1.091088 -1.028593 0.000000 0.000000 0.000000 6.452336 1.034176 -0.954309 -1.664258 -0.223617 -0.185490 0.000000 0.000000 0.000000 6.452336 1.034176 -0.954309 5.318308 -35.463701 4.617414 -75.973150 -32.528062 -21.224029 0.000005 -27.688223 -0.000009 0.000000 0.000000 0.000000 6.452336 1.034176 -0.954309 3.343502 29.595684 -18.253978 -35.737609 31.911293 10.742124 0.000000 29.323416 0.000000 0.000000 0.000000 0.000000 
2.282649 81.900757 3.559355 0.000000 0.000000 0.000000 7.597610 -9.221607 1.395346 -57.862583 -0.964157 22.477302 50.435374 2.491532 4.823690 4.697211 0.711217 -19.704566 0.000000 0.000000 0.000000 7.597610 -9.221607 1.395346 -26.660580 -0.662493 -35.717532 41.050806 0.323730 -1.426070 -13.387416 -6.545517 33.670596 0.000000 0.000000 0.000000 7.597610 -9.221607 1.395346 0.000000 0.000000 0.000000 7.675801 0.950625 -2.779278 6.458414 1.059673 -1.078917 0.000000 0.000000 0.000000 6.476067 1.004668 -1.008483 -1.780008 -0.261924 -0.095018 0.000000 0.000000 0.000000 6.476067 1.004668 -1.008483 5.324655 -35.494451 4.670773 -75.597743 -33.466547 -20.902957 0.000007 -27.148718 0.000009 0.000000 0.000000 0.000000 6.476067 1.004668 -1.008483 3.228987 28.899357 -18.100973 -36.415239 32.483082 11.481574 0.000000 28.812651 -0.000002 0.000000 0.000000 0.000000 
2.387306 81.775810 3.616856 0.000000 0.000000 0.000000 7.514216 -9.226929 1.330422 -58.239350 -0.807053 22.438597 51.079399 2.265738 5.114840 4.429615 0.759756 -19.698539 0.000000 0.000000 0.000000 7.514216 -9.226929 1.330422 -26.619197 -0.635887 -35.707566 41.235864 0.343815 -1.581667 -13.525512 -6.608084 33.777068 0.000000 0.000000 0.000000 7.514216 -9.226929 1.330422 0.000000 0.000000 0.000000 7.722329 0.910771 -2.877481 6.493216 1.049443 -1.127364 0.000000 0.000000 0.000000 6.510263 0.996294 -1.058786 -1.853400 -0.290131 -0.036973 0.000000 0.000000 0.000000 6.510263 0.996294 -1.058786 5.340324 -35.549530 4.695812 -75.314905 -34.349643 -20.711820 0.000010 -26.522313 0.000017 0.000000 0.000000 0.000000 6.510263 0.996294 -1.058786 3.150979 28.391008 -18.024832 -36.963263 32.955888 12.147690 -0.000001 28.192823 -0.000001 0.000000 0.000000 0.000000 
2.487379 81.672592 3.680626 0.000000 0.000000 0.000000 7.418670 -9.252599 1.291629 -58.528977 -0.629611 22.355332 51.631333 2.098454 5.451002 4.209183 0.799622 -19.735301 0.000000 0.000000 0.000000 7.418670 -9.252599 1.291629 -26.590442 -0.648261 -35.687236 41.370760 0.392895 -1.828247 -13.619169 -6.663378 33.917111 0.000000 0.000000 0.000000 7.418670 -9.252599 1.291629 0.000000 0.000000 0.000000 7.778794 0.904401 -2.974478 6.532551 1.056136 -1.171395 0.000000 0.000000 0.000000 6.549421 1.004022 -1.102939 -1.894633 -0.306066 -0.009933 0.000000 0.000000 0.000000 6.549421 1.004022 -1.102939 5.359579 -35.619037 4.708691 -75.090034 -35.051342 -20.583953 0.000015 -26.003761 0.000033 0.000000 0.000000 0.000000 6.549421 1.004022 -1.102939 3.105994 28.105019 -18.032319 -37.301651 33.244771 12.665266 0.000001 27.625192 -0.000001 0.000000 0.000000 0.000000 
2.580872 81.595444 3.745211 0.000000 0.000000 0.000000 7.339440 -9.300880 1.304916 -58.611424 -0.717247 22.284086 52.071569 2.161531 5.456645 4.033790 0.829676 -19.746765 0.000000 0.000000 0.000000 7.339440 -9.300880 1.304916 -26.592051 -0.659400 -35.708451 41.457718 0.470595 -2.085715 -13.668049 -6.706888 34.062775 0.000000 0.000000 0.000000 7.339440 -9.300880 1.304916 0.000000 -0.000001 0.000000 7.840279 0.923728 -3.064957 6.571226 1.075198 -1.209224 0.000000 0.000000 0.000000 6.588415 1.023076 -1.139720 -1.915624 -0.310947 -0.004133 0.000000 0.000000 0.000000 6.588415 1.023076 -1.139720 5.378054 -35.693517 4.719459 -74.900879 -35.507619 -20.474225 -0.000008 -25.702171 -0.000002 0.000000 0.000000 0.000000 6.588415 1.023076 -1.139720 3.087127 28.020844 -18.114913 -37.404513 33.328113 13.015226 -0.000000 27.211325 0.000001 0.000000 0.000000 0.000000 
2.674823 81.551018 3.805498 0.000000 0.000000 0.000000 7.258511 -9.248242 1.314696 -58.567233 -1.026603 22.197012 52.370315 2.314236 5.175432 3.942352 0.843195 -19.669022 0.000000 0.000000 0.000000 7.258511 -9.248242 1.314696 -26.464485 -0.730777 -35.760084 41.425712 0.460037 -2.276782 -13.681549 -6.741933 34.219897 0.000000 0.000000 0.000000 7.258511 -9.248242 1.314696 0.000000 -0.000001 0.000000 7.901404 0.958890 -3.146147 6.605491 1.102276 -1.240137 0.000000 0.000000 0.000000 6.623354 1.049393 -1.169077 -1.927582 -0.308581 -0.006358 0.000000 0.000000 0.000000 6.623354 1.049393 -1.169077 5.393476 -35.766812 4.733689 -74.738915 -35.717580 -20.362064 -0.000003 -25.634204 -0.000008 0.000000 0.000000 0.000000 6.623354 1.049393 -1.169077 3.086174 28.082786 -18.257164 -37.302720 33.236708 13.229544 -0.000001 26.979968 -0.000001 0.000000 0.000000 0.000000 
2.755924 81.539444 3.850212 0.000000 0.000000 0.000000 7.186258 -9.263423 1.299453 -58.472594 -1.300951 22.176847 52.592081 2.472591 4.914171 3.850685 0.857270 -19.607537 0.000000 0.000000 0.000000 7.186258 -9.263423 1.299453 -26.289026 -0.717443 -35.787329 41.281711 0.410051 -2.310041 -13.615238 -6.736335 34.299014 0.000000 0.000000 0.000000 7.186258 -9.263423 1.299453 0.000000 -0.000001 0.000000 7.957085 1.001135 -3.218319 6.633160 1.133663 -1.264344 0.000000 0.000000 0.000000 6.651737 1.079799 -1.191791 -1.939397 -0.303924 -0.004963 0.000000 0.000000 0.000000 6.651737 1.079799 -1.191791 5.405633 -35.836035 4.754110 -74.604831 -35.726787 -20.246590 0.000009 -25.748150 0.000011 0.000000 0.000000 0.000000 6.651737 1.079799 -1.191791 3.094715 28.222434 -18.442742 -37.066105 33.031273 13.371215 0.000001 26.900248 -0.000001 0.000000 0.000000 0.000000 
2.827989 81.542915 3.866177 0.000000 0.000000 0.000000 7.074748 -9.389680 1.250461 -58.361200 -1.428867 22.238398 52.815660 2.581183 4.798050 3.715523 0.880365 -19.586128 0.000000 0.000000 0.000000 7.074748 -9.389680 1.250461 -26.059006 -0.534961 -35.804169 41.105434 0.336253 -2.133746 -13.495177 -6.692938 34.274070 0.000000 0.000000 0.000000 7.074748 -9.389680 1.250461 0.000000 0.000000 0.000000 8.003279 1.043909 -3.280626 6.653365 1.166440 -1.282492 0.000000 0.000000 0.000000 6.672565 1.111949 -1.208893 -1.956848 -0.301430 0.006674 0.000000 0.000000 0.000000 6.672565 1.111949 -1.208893 5.415263 -35.899870 4.781423 -74.502938 -35.604062 -20.139144 0.000014 -25.961168 0.000017 0.000000 0.000000 0.000000 6.672565 1.111949 -1.208893 3.105037 28.377264 -18.658144 -36.776884 32.779519 13.509203 -0.000002 26.908638 0.000003 0.000000 0.000000 0.000000 
